<svg width="100" height="100" viewBox="0 0 100 100" xmlns="http://www.w3.org/2000/svg">
  <!-- Book base - dark blue V shape -->
  <path d="M15 85 L50 100 L85 85 L85 100 L15 100 Z" fill="#1e3a8a" stroke="#000" stroke-width="0.8"/>
  <!-- Book base - light blue layer -->
  <path d="M20 80 L50 95 L80 80 L80 100 L20 100 Z" fill="#3b82f6" stroke="#000" stroke-width="0.8"/>
  
  <!-- Left cover - dark blue outer -->
  <path d="M15 15 Q15 5 25 5 L15 85 Z" fill="#1e3a8a" stroke="#000" stroke-width="0.8"/>
  <!-- Left cover - light blue inner -->
  <path d="M20 20 Q20 10 28 10 L20 80 Z" fill="#3b82f6" stroke="#000" stroke-width="0.8"/>
  
  <!-- Right cover - dark blue outer -->
  <path d="M85 15 Q85 5 75 5 L85 85 Z" fill="#1e3a8a" stroke="#000" stroke-width="0.8"/>
  <!-- Right cover - light blue inner -->
  <path d="M80 20 Q80 10 72 10 L80 80 Z" fill="#3b82f6" stroke="#000" stroke-width="0.8"/>
  
  <!-- Left page - orange with text lines -->
  <path d="M25 5 Q35 0 50 5 L50 95 L25 85 Z" fill="#f97316" stroke="#000" stroke-width="0.8"/>
  <!-- Text lines on orange page -->
  <line x1="30" y1="20" x2="42" y2="26" stroke="#000" stroke-width="1.2"/>
  <line x1="30" y1="32" x2="42" y2="38" stroke="#000" stroke-width="1.2"/>
  <line x1="30" y1="44" x2="42" y2="50" stroke="#000" stroke-width="1.2"/>
  <line x1="30" y1="56" x2="42" y2="62" stroke="#000" stroke-width="1.2"/>
  
  <!-- Right page - green -->
  <path d="M50 5 Q60 0 75 5 L75 85 L50 95 Z" fill="#10b981" stroke="#000" stroke-width="0.8"/>
</svg>
